<svg id="Layer_1" data-name="Layer 1" xmlns="http://www.w3.org/2000/svg" viewBox="0 0 186 50"><defs><style>.cls-1{fill:#78b62d;}.cls-2{fill:#1467ae;}.cls-3{fill:#1d1e1c;}.cls-4{fill:#221e20;}</style></defs><title>mainlogo</title><path class="cls-1" d="M185.3,23.21S182.89,34.62,171,36.38H171c-1.85.27-16.48,2.11-20-13.11h4.9V17.4l1.88-1.1V28.59h.14V16.27l1.15,1.07V28.59h.4l0-9.06,2.33-.47v9.52H162V19l1,.49,0,9.06h.29V20.79l.66-.4v8.19H164l0-8.14,1.36.37v7.76h1.36l0-9.2,1.39-1,0,10.21h.17V18.34l1.3,1,0,9.26h1.06V18l3.75-3.34v14h.14l0-14L176,18V28.59h.64l-.06-6.9,1.18.4v6.49h.13V22.09l1-.44V28s0,.12.43-.58V16.73l3.54,2.3,0,4.21Zm-17-19.42a12.45,12.45,0,0,1,11.16,8.36h5.45c-3.74-11.58-17.45-11-17.45-11-12.15,0-15.63,11.06-15.63,11.06l4.57.05A11.31,11.31,0,0,1,168.28,3.79Z"/><path class="cls-2" d="M138.4,17.22c0-3.12-1.61-5.24-6.43-5.24a15.17,15.17,0,0,0-6,1.29l.71,2.55c0,.08.05.08.11.08s.13,0,.13-.11c.24-2.12,3.23-3.14,5.08-3.14,3.36,0,4.23,1.93,4.23,5.08h-2c-3,0-9,.62-9,4.73,0,2.93,3.07,4.3,5.64,4.3s4.44-.78,5.58-3.09h.05c.08.75.45,1.85.45,2.53,0,.08.11.22.32.22s.63-.05,1-.05.93.05,1,.05a.21.21,0,0,0,.24-.19c0-.08-.08-.16-.21-.21-.71-.24-.93-2-.93-3.68Zm-2.12,1.18v1.18c0,3.28-.58,6.5-4.55,6.5-2.14,0-3.94-1.21-3.94-3.57,0-3.57,3.73-4.11,6.54-4.11ZM121.22,7.82a1.29,1.29,0,1,0,1.24,1.29,1.27,1.27,0,0,0-1.24-1.29m1,4.57-2.88.78c-.11,0-.19.05-.19.13s.11.11.24.16c.42.24.87.32.87.86v7.85c0,2.39-.08,3.39-1,3.82-.26.11-.45.19-.45.32s.08.11.21.11c.29,0,.85-.05,2.2-.05.77,0,1.75.05,2.2.05.13,0,.32,0,.32-.11s-.19-.16-.42-.22c-.64-.19-1.11-1.53-1.11-4.51Zm-9.1-4.59c-.13.05-.24.11-.24.21s.08.11.45.21c.77.24.93,1.45.93,2.42v3.73A7.79,7.79,0,0,0,109,12c-4.39,0-7.7,3-7.7,7.55a7.08,7.08,0,0,0,7.36,7.23,6.24,6.24,0,0,0,5.58-3.36l.64,3c.37,0,.77-.11,1.19-.11s.77.11,1.19.11c.19,0,.24-.05.24-.16s-.16-.22-.37-.38c-.64-.46-.93-2-.93-5.4V6.88Zm-4.29,4.86c3.92,0,5.37,2.82,5.37,6.53s-1.4,6.91-5.45,6.91c-3.44,0-4.89-3.44-4.89-6.56s1.19-6.88,5-6.88M87.65,16.82c.58-2.61,2.06-4.16,4.87-4.16a4,4,0,0,1,4.37,4.16Zm11.77.67C99.11,13.86,95.8,12,92.36,12A7.39,7.39,0,0,0,92,26.76c3.55,0,6.54-1.85,7.51-5a2,2,0,0,0,.13-.67c0-.13-.05-.24-.21-.24s-.32.22-.34.38C99,22.09,97.07,26,93.07,26c-4.18,0-5.64-3.22-5.64-7.17a7.19,7.19,0,0,1,.16-1.32ZM70.05,12.39a13.65,13.65,0,0,1-2.65.78c-.21,0-.29.08-.29.16s.11.11.26.13c.37.05.93.32.93,2.23V26.23c0,2.71-.34,4.73-.87,4.92s-.69.27-.69.38.16.11.42.11a21.4,21.4,0,0,1,2.25-.08c1.4,0,1.85.08,2.09.08s.34,0,.34-.13-.26-.16-.56-.32c-1-.62-1-1.72-1-3.06V24h.05a7.12,7.12,0,0,0,5.4,2.71,7.37,7.37,0,0,0,7.54-7.58A7.24,7.24,0,0,0,76,12a6,6,0,0,0-5.82,3.9h-.08Zm5.56.27c3.55,0,5.11,3,5.11,6.45,0,3.71-1.19,7-5.11,7-4.07,0-5.34-3.17-5.34-7,0-3.22,1.51-6.45,5.34-6.45M50.13,19.37a7.85,7.85,0,0,0,15.66,0,7.85,7.85,0,0,0-15.66,0m2.54,0c0-3.65,1.38-6.72,5.29-6.72s5.32,3.06,5.29,6.72S61.88,26.09,58,26.09,52.64,23,52.67,19.37M47.06,6.88l-2.91.73c-.11,0-.24.08-.24.16s.08.11.26.16c.71.27.93.86.93,2.88v9.54c0,2.79-.13,5.13-1.08,5.56-.37.16-.71.27-.71.4s.11.11.58.11,1.43-.05,2.2-.05,1.75.05,2.06.05c.13,0,.45,0,.45-.11s-.29-.24-.56-.35c-.85-.35-1-1.93-1-3.49Zm-6.3,10.35c0-3.12-1.61-5.24-6.43-5.24a15.17,15.17,0,0,0-6,1.29l.71,2.55c0,.08.05.08.11.08s.13,0,.13-.11c.24-2.12,3.23-3.14,5.08-3.14,3.36,0,4.23,1.93,4.23,5.08h-2c-3,0-9,.62-9,4.73,0,2.93,3.07,4.3,5.64,4.3s4.45-.78,5.58-3.09h.05c.08.75.45,1.85.45,2.53,0,.08.11.22.32.22s.64-.05,1-.05.93.05,1,.05a.21.21,0,0,0,.24-.19c0-.08-.08-.16-.21-.21-.71-.24-.93-2-.93-3.68Zm-2.12,1.18v1.18c0,3.28-.58,6.5-4.55,6.5-2.14,0-3.94-1.21-3.94-3.57,0-3.57,3.73-4.11,6.54-4.11ZM14,16.82c.58-2.61,2.06-4.16,4.87-4.16a4,4,0,0,1,4.37,4.16Zm11.77.67C25.45,13.86,22.14,12,18.7,12a7.39,7.39,0,0,0-.32,14.78c3.55,0,6.54-1.85,7.51-5a2,2,0,0,0,.13-.67c0-.13-.05-.24-.21-.24s-.32.22-.34.38c-.16.89-2.06,4.78-6.06,4.78-4.18,0-5.64-3.22-5.64-7.17a7.16,7.16,0,0,1,.16-1.32ZM10.26,12c-2.62,0-4.18,1.26-5.37,3.9H4.83V12.12l-2.75.75c-.19.05-.34.11-.34.16s.19.16.4.21a1.19,1.19,0,0,1,.9,1v7.79c0,2.47-.24,3.41-1.08,3.84-.26.11-.45.24-.45.35s.19.13.32.13c.45,0,1.43-.05,2.36-.05s1.9.05,2.35.05c.13,0,.21,0,.21-.13S6.58,26,6.29,26C5.23,25.82,5,24.56,5,22.57V20.93c0-4.25.71-7,2.94-7a2.08,2.08,0,0,1,1.43.7Z"/><path class="cls-3" d="M181.91,4.66A1.33,1.33,0,1,1,183.24,6,1.33,1.33,0,0,1,181.91,4.66Zm2.5,0a1.17,1.17,0,1,0-1.16,1.17A1.16,1.16,0,0,0,184.41,4.66Zm-.51.76h-.21l-.42-.67h-.34v.67h-.16V4h.64c.39,0,.52.14.52.39s-.2.39-.46.4Zm-.68-.84c.21,0,.54,0,.54-.24s-.21-.22-.39-.22h-.43v.45Z"/><path class="cls-4" d="M7,41.2v7.57H6.42V41.2H4v-.55H9.47v.55Z"/><path class="cls-4" d="M15.91,48.77V45H11.68v3.82h-.62V40.65h.62v3.75h4.23V40.65h.62v8.12Z"/><path class="cls-4" d="M19,48.77V40.65H24v.55H19.65v3.2h3.67V45H19.65v3.27H24v.55Z"/><path class="cls-4" d="M28.77,48.77V40.65h4.93v.55H29.38v3.2h3.67V45H29.38v3.27h4.31v.55Z"/><path class="cls-4" d="M37.64,48.77h-.52l-2.67-8.12h.65l2.28,7,2.28-7h.65Z"/><path class="cls-4" d="M41.68,48.77V40.65h4.93v.55H42.29v3.2H46V45H42.29v3.27h4.31v.55Z"/><path class="cls-4" d="M53.29,48.77,51.35,45H49.12v3.74H48.5V40.65h3.09A2.2,2.2,0,0,1,52,45l2,3.75ZM51.51,41.2H49.12v3.28h2.39a1.65,1.65,0,1,0,0-3.28Z"/><path class="cls-4" d="M57.86,45.41v3.36h-.62V45.41l-2.39-4.76h.66l2.06,4.11,2-4.11h.66Z"/><path class="cls-4" d="M63.75,41.2v7.57h-.62V41.2H60.72v-.55h5.46v.55Z"/><path class="cls-4" d="M72.62,48.77V45H68.39v3.82h-.62V40.65h.62v3.75h4.23V40.65h.62v8.12Z"/><path class="cls-4" d="M75.75,48.77V40.65h.62v8.12Z"/><path class="cls-4" d="M84.18,48.77l-4.69-7.06v7.06h-.62V40.65h.62l4.69,7v-7h.62v8.12Z"/><path class="cls-4" d="M91.9,47.91a2.9,2.9,0,0,1-4.16.1c-.74-.74-.75-1.46-.75-3.3s0-2.55.75-3.3a2.86,2.86,0,0,1,2-.83A2.74,2.74,0,0,1,92.54,43h-.62a2.19,2.19,0,0,0-3.69-1.2c-.58.58-.63,1.21-.63,3s0,2.37.63,3a2.16,2.16,0,0,0,1.54.63,2.18,2.18,0,0,0,1.69-.79,2.34,2.34,0,0,0,.49-1.61v-.73H89.77v-.55h2.79v1.32A2.65,2.65,0,0,1,91.9,47.91Z"/><path class="cls-4" d="M102.13,48a2.89,2.89,0,0,1-4.06,0c-.74-.74-.75-1.46-.75-3.3s0-2.55.75-3.3a2.89,2.89,0,0,1,4.06,0c.74.74.75,1.46.75,3.3S102.87,47.27,102.13,48Zm-.49-6.25a2.2,2.2,0,0,0-3.08,0c-.58.58-.63,1.21-.63,3s0,2.37.63,3a2.2,2.2,0,0,0,3.08,0c.58-.58.63-1.21.63-3S102.22,42.34,101.64,41.76Z"/><path class="cls-4" d="M105.69,41.2v3.34h3.67v.55h-3.67v3.68h-.62V40.65H110v.55Z"/><path class="cls-4" d="M119.34,48.77,117.4,45h-2.23v3.74h-.62V40.65h3.09A2.2,2.2,0,0,1,118.1,45l2,3.75Zm-1.78-7.57h-2.39v3.28h2.39a1.65,1.65,0,1,0,0-3.28Z"/><path class="cls-4" d="M122,48.77V40.65H127v.55h-4.31v3.2h3.67V45h-3.67v3.27H127v.55Z"/><path class="cls-4" d="M133.64,48.77l-.71-2h-3.79l-.71,2h-.66l3-8.12h.55l3,8.12Zm-2.6-7.3-1.7,4.78h3.4Z"/><path class="cls-4" d="M135.73,48.77V40.65h.62v7.57h4.31v.55Z"/><path class="cls-4" d="M145.16,48.77V40.65h4.93v.55h-4.31v3.2h3.67V45h-3.67v3.27h4.31v.55Z"/><path class="cls-4" d="M154,48.84a3.43,3.43,0,0,1-2.7-1.07l.43-.43a2.84,2.84,0,0,0,2.3,1c1.28,0,2.09-.62,2.09-1.68a1.47,1.47,0,0,0-.44-1.14,2,2,0,0,0-1.17-.43l-.95-.15a2.82,2.82,0,0,1-1.45-.59,1.85,1.85,0,0,1-.64-1.49A2.22,2.22,0,0,1,154,40.59a3.21,3.21,0,0,1,2.34.88l-.4.4a2.64,2.64,0,0,0-2-.75,1.65,1.65,0,0,0-1.88,1.68,1.3,1.3,0,0,0,.42,1.06,2.59,2.59,0,0,0,1.21.5l.88.14A2.58,2.58,0,0,1,156,45a2,2,0,0,1,.71,1.57C156.75,48,155.7,48.84,154,48.84Z"/><path class="cls-4" d="M160.8,41.2v7.57h-.62V41.2h-2.42v-.55h5.46v.55Z"/><path class="cls-4" d="M169.61,48.77l-.71-2h-3.79l-.71,2h-.66l3-8.12h.55l3,8.12Zm-2.6-7.3-1.7,4.78h3.4Z"/><path class="cls-4" d="M173.82,41.2v7.57h-.62V41.2h-2.42v-.55h5.46v.55Z"/><path class="cls-4" d="M177.84,48.77V40.65h4.93v.55h-4.31v3.2h3.67V45h-3.67v3.27h4.31v.55Z"/></svg>